Coordinates
version=1
nRows=24
nColumns=24
inDegrees=yes

Units are S.I. units (second, meters, Newtons, ...)
Angles are in degrees.

endheader
time	pelvis_tilt	pelvis_list	pelvis_rotation	pelvis_tx	pelvis_ty	pelvis_tz	hip_flexion_r	hip_adduction_r	hip_rotation_r	knee_angle_r	ankle_angle_r	subtalar_angle_r	mtp_angle_r	hip_flexion_l	hip_adduction_l	hip_rotation_l	knee_angle_l	ankle_angle_l	subtalar_angle_l	mtp_angle_l	lumbar_extension	lumbar_bending	lumbar_rotation
      1.30000000	      0.81482270	     -5.85283411	     -2.02892244	      0.03852643	      1.04428142	      0.35099362	    -21.12716666	     11.12637524	     -3.06436656	     -1.44779346	      2.68775062	     -8.71246510	      5.41728666	     21.94953802	     -2.69633260	     -7.51433937	      5.65996620	      8.32158397	      4.96126276	      5.12249703	      4.14783060	     10.68495529	      3.05594974
      1.30416667	      0.83037853	     -5.82244169	     -2.07262051	      0.04430324	      1.04405155	      0.35096920	    -21.29221370	     11.03839651	     -3.04175129	     -1.78404640	      2.53849986	     -8.69825969	      5.42710041	     21.87995579	     -2.65862952	     -7.39228710	      5.26203946	      8.40112073	      4.85137557	      5.09905579	      4.22089804	     10.60123357	      3.09863080
      1.30833333	      0.86276713	     -5.69364531	     -2.10637406	      0.05039743	      1.04388257	      0.35087924	    -21.49800151	     10.84097215	     -3.06858241	     -2.06965324	      2.11685282	     -8.66510189	      5.46129167	     21.72334125	     -2.50715621	     -7.16003547	      4.93353093	      8.61463336	      4.44550584	      5.02490351	      4.23286909	     10.44759017	      3.20817013
      1.31250000	      0.97057835	     -5.61660625	     -2.12695274	      0.05629277	      1.04382826	      0.35073879	    -21.74654284	     10.69704841	     -3.14790079	     -2.41485716	      1.79068296	     -8.67898846	      5.54519873	     21.48432268	     -2.40674643	     -6.80255450	      4.63153785	      8.41877035	      3.78526706	      4.86914303	      4.13403959	     10.34943888	      3.36226618
      1.31666667	      0.96232458	     -5.58862443	     -2.17821599	      0.06218092	      1.04364120	      0.35068153	    -21.86361173	     10.60589538	     -3.09415501	     -2.80425881	      1.74414047	     -8.67545995	      5.55408800	     21.39800476	     -2.37326333	     -6.69891150	      4.24915707	      8.39409793	      3.75214191	      4.85700197	      4.20633809	     10.30414135	      3.38137898
      1.32083333	      0.96858502	     -5.54952687	     -2.26316748	      0.06812451	      1.04351872	      0.35064319	    -21.98088822	     10.48682912	     -3.06401411	     -3.22104223	      1.61910580	     -8.66536796	      5.56505863	     21.26053086	     -2.33944035	     -6.59810002	      3.90993304	      8.35590739	      3.67879998	      4.84261942	      4.29376870	     10.23531210	      3.41044843
      1.32500000	      1.04817043	     -5.39601139	     -2.32619992	      0.07440398	      1.04354479	      0.35056375	    -22.19836885	     10.24444302	     -3.11439915	     -3.57246907	      1.03094188	     -8.56636858	      5.64960041	     20.97606608	     -2.16797667	     -6.47165677	      3.68809308	      8.07522940	      3.00245850	      4.74469138	      4.30345166	      9.98455736	      3.57588134
      1.32916667	      1.04467179	     -5.35041681	     -2.42852648	      0.08042260	      1.04348851	      0.35050352	    -22.27293305	     10.10758337	     -3.10304953	     -4.06351719	      0.94291980	     -8.58358715	      5.66407599	     20.79968792	     -2.12724699	     -6.33737416	      3.43783510	      7.99428027	      2.95424164	      4.73184351	      4.36663431	      9.95905734	      3.59708919
      1.33333333	      1.09261124	     -5.17954109	     -2.58545950	      0.08684468	      1.04359586	      0.35047475	    -22.41790922	      9.80456556	     -3.17582304	     -4.49678139	      0.43000011	     -8.52423508	      5.72764124	     20.48248553	     -1.96101507	     -6.30311759	      3.31254705	      7.55347609	      2.48381564	      4.67705039	      4.41539895	      9.82423075	      3.70563124
      1.33750000	      1.14663140	     -5.08034555	     -2.69072797	      0.09303087	      1.04368326	      0.35040116	    -22.53548650	      9.59921109	     -3.22597198	     -4.99154271	      0.03928377	     -8.48340692	      5.81902518	     20.18156037	     -1.85769675	     -6.14084048	      3.18490324	      7.07815109	      1.94361872	      4.62012142	      4.38799434	      9.63908891	      3.84554581
      1.34166667	      1.17581200	     -5.07077840	     -2.73283940	      0.09898801	      1.04370532	      0.35031576	    -22.59809690	      9.52233174	     -3.20682869	     -5.54306479	     -0.07097107	     -8.49016490	      5.83650300	     19.96602362	     -1.83679739	     -6.06946805	      2.96718937	      6.97057723	      1.86942456	      4.61213211	      4.48455983	      9.58362226	      3.87636817
      1.34583333	      1.21737952	     -4.85579027	     -2.92575728	      0.10560721	      1.04392409	      0.35030692	    -22.68916258	      9.15037388	     -3.30192254	     -6.05960635	     -0.68474369	     -8.42155250	      5.91745821	     19.59362128	     -1.62281550	     -6.16461692	      2.96933773	      6.26284462	      1.33067098	      4.57415132	      4.52378233	      9.43071564	      3.99069081
      1.35000000	      1.44584157	     -4.77514082	     -2.95531919	      0.11159522	      1.04429020	      0.35006731	    -22.93061879	      8.96648180	     -3.36855108	     -6.63304231	     -1.04294064	     -8.37049794	      6.25568298	     19.05735365	     -1.50353992	     -5.61985536	      2.99250228	      5.45301489	     -0.06738283	      4.51290885	      4.27695186	      9.25584072	      4.32652630
      1.35416667	      1.44573627	     -4.65706034	     -3.09418071	      0.11796148	      1.04445917	      0.35005582	    -22.90755678	      8.72564204	     -3.47132430	     -7.27624274	     -1.48753420	     -8.29253956	      6.36154744	     18.78722916	     -1.38089952	     -5.80373946	      2.91819125	      4.97674314	     -0.26572771	      4.49861745	      4.43034551	      9.11126249	      4.37446932
      1.35833333	      1.40756590	     -4.50854604	     -3.27511383	      0.12443932	      1.04462481	      0.35006589	    -22.83110557	      8.43148459	     -3.52044686	     -7.94977719	     -1.88758309	     -8.27143953	      6.43951857	     18.50970470	     -1.23729906	     -5.85566924	      2.92661540	      4.47879070	     -0.46124564	      4.49130811	      4.49748890	      8.99798733	      4.41467783
      1.36250000	      1.43231821	     -4.37719629	     -3.44230443	      0.13081440	      1.04490497	      0.35009446	    -22.78862322	      8.15723056	     -3.58614475	     -8.66314294	     -2.44312014	     -8.23138201	      6.54232613	     18.18494203	     -1.10695916	     -5.99170110	      2.91836433	      3.76000496	     -0.85339636	      4.48580521	      4.60020881	      8.80595083	      4.49559922
      1.36666667	      1.52727896	     -4.28346645	     -3.52596661	      0.13698577	      1.04525856	      0.35001138	    -22.80928422	      7.94382757	     -3.54543730	     -9.37038256	     -2.97819049	     -8.21458826	      6.91740123	     17.77251298	     -0.99639581	     -5.63656856	      2.97351920	      2.77363316	     -2.04218925	      4.52499497	      4.60928511	      8.59810223	      4.73858433
      1.37083333	      1.51254424	     -4.13039087	     -3.66683491	      0.14341431	      1.04551600	      0.34991563	    -22.65985463	      7.64283212	     -3.76836262	    -10.20666675	     -3.35210972	     -8.20885602	      6.99514205	     17.50601430	     -0.82328073	     -5.81565434	      2.92438673	      2.41136489	     -2.21429594	      4.53357615	      4.65391873	      8.54014395	      4.75153170
      1.37500000	      1.51364389	     -3.96320524	     -3.84530112	      0.14986651	      1.04586286	      0.34996602	    -22.51743615	      7.31475468	     -3.85302285	    -11.03889414	     -3.98514656	     -8.11023303	      7.10442940	     17.20272327	     -0.65592119	     -5.96509362	      2.92250624	      1.67743111	     -2.52149201	      4.54429648	      4.75651647	      8.29255574	      4.81381303
      1.37916667	      1.59953813	     -3.85875591	     -3.90074551	      0.15598056	      1.04627444	      0.34975914	    -22.42922729	      7.08014588	     -3.95424710	    -11.90510838	     -4.57581034	     -8.10006941	      7.70428585	     16.82498303	     -0.51600609	     -5.57304118	      2.94395873	      0.56201446	     -4.08647119	      4.68026933	      4.78918692	      8.12845379	      5.04325808
      1.38333333	      1.61623942	     -3.67407110	     -4.02371300	      0.16239070	      1.04665757	      0.34974435	    -22.24670753	      6.74491557	     -4.12892840	    -12.82447914	     -5.17530909	     -7.96213615	      7.84890720	     16.54529346	     -0.31315964	     -5.77861576	      2.86918316	      0.02865516	     -4.22161949	      4.71148226	      4.91864211	      7.89191007	      5.07412326
      1.38750000	      1.62757672	     -3.50325425	     -4.14242586	      0.16872112	      1.04706577	      0.34971785	    -22.03280542	      6.42096396	     -4.24522535	    -13.77444960	     -5.83219337	     -7.85742579	      8.02792976	     16.27611974	     -0.12875558	     -5.87568958	      2.79205924	     -0.66509000	     -4.55001951	      4.75109358	      5.02439881	      7.64329788	      5.12100592
      1.39166667	      1.63704881	     -3.31689002	     -4.25048871	      0.17501685	      1.04748513	      0.34963523	    -21.78282267	      6.07449727	     -4.40466673	    -14.77638719	     -6.50732498	     -7.77129812	      8.23612085	     16.01381242	      0.07776413	     -5.90020739	      2.71098437	     -1.36068924	     -5.02820254	      4.80055775	      5.12086851	      7.39841397	      5.17709638
      1.39583333	      1.65685328	     -3.11943653	     -4.33863925	      0.18127485	      1.04793116	      0.34951591	    -21.51788512	      5.71601203	     -4.58416530	    -15.81182672	     -7.20641882	     -7.67323498	      8.47550582	     15.74588842	      0.30109384	     -5.84338292	      2.62382186	     -2.05769139	     -5.58362453	      4.86027049	      5.20746254	      7.14185134	      5.23315921
